# xmcd CD database file
#
# Track frame offsets:
#	150
#	17576
#	42281
#	65850
#	89738
#	115947
#	142920
#	168164
#	195272
#	216525
#	242945
#	265357
#	287121
#	310677
#
# Disc length: 4490 seconds
#
# Revision: 2
# Processed by: cddbd v1.5.2PL0 Copyright (c) Steve Scherf et al.
# Submitted via: CDex 1.70beta3
#
DISCID=d111880e
DTITLE=JAM Project - スーパーロボット対戦 JAM Project SONGS
DYEAR=2008
DGENRE=Game
TTITLE0=鋼の救世主
TTITLE1=POWER
TTITLE2=GO!!
TTITLE3=Departure
TTITLE4=SKILL
TTITLE5=FOREVER&EVER
TTITLE6=VICTORY
TTITLE7=約束の地
TTITLE8=GONG
TTITLE9=Brother in faith
TTITLE10=Rocks
TTITLE11=Portal
TTITLE12=Crest of "Z's"
TTITLE13=Cosmic Dance
EXTD=YEAR: 2008
EXTT0=
EXTT1=
EXTT2=
EXTT3=
EXTT4=
EXTT5=
EXTT6=
EXTT7=
EXTT8=
EXTT9=
EXTT10=
EXTT11=
EXTT12=
EXTT13=
PLAYORDER=
